<?xml version="1.0" encoding="UTF-8" standalone="no"?>
<!DOCTYPE svg PUBLIC "-//W3C//DTD SVG 1.1//EN" "http://www.w3.org/Graphics/SVG/1.1/DTD/svg11.dtd">
<svg width="100%" height="100%" viewBox="0 0 871 1349" version="1.1" xmlns="http://www.w3.org/2000/svg" xmlns:xlink="http://www.w3.org/1999/xlink" xml:space="preserve" xmlns:serif="http://www.serif.com/" style="fill-rule:evenodd;clip-rule:evenodd;stroke-linecap:round;stroke-linejoin:round;stroke-miterlimit:1.5;">
    <g transform="matrix(1,0,0,1,-125.953,-52.1865)">
        <g transform="matrix(1,0,0,1,-382.249,-288.423)">
            <g transform="matrix(0.0100077,-0.99995,0.99995,0.0100077,-233.319,1398.76)">
                <text x="589.754px" y="817.212px" style="font-family:'Quicksand-Regular', 'Quicksand';font-size:116.667px;">L</text>
            </g>
            <g transform="matrix(0.170393,-0.985376,0.985376,0.170393,-258.59,1207.74)">
                <text x="587.961px" y="757.443px" style="font-family:'Quicksand-Regular', 'Quicksand';font-size:116.667px;">y</text>
            </g>
            <g transform="matrix(0.363032,-0.931777,0.931777,0.363032,-263.35,999.65)">
                <text x="599.484px" y="692.443px" style="font-family:'Quicksand-Regular', 'Quicksand';font-size:116.667px;">o</text>
            </g>
            <g transform="matrix(0.508742,-0.860919,0.860919,0.508742,-233.56,846.326)">
                <text x="624.804px" y="627.817px" style="font-family:'Quicksand-Regular', 'Quicksand';font-size:116.667px;">n</text>
            </g>
            <g transform="matrix(0.641312,-0.76728,0.76728,0.641312,-200.49,710.071)">
                <text x="659.223px" y="569.473px" style="font-family:'Quicksand-Regular', 'Quicksand';font-size:116.667px;">n</text>
            </g>
            <g transform="matrix(0.76644,-0.642316,0.642316,0.76644,-168.387,572.118)">
                <text x="702.5px" y="517.601px" style="font-family:'Quicksand-Regular', 'Quicksand';font-size:116.667px;">a</text>
            </g>
            <g transform="matrix(0.850783,-0.525517,0.525517,0.850783,-135.991,468.74)">
                <text x="757.416px" y="473.839px" style="font-family:'Quicksand-Regular', 'Quicksand';font-size:116.667px;">i</text>
            </g>
            <g transform="matrix(0.908498,-0.417889,0.417889,0.908498,-120.983,367.297)">
                <text x="778.23px" y="459.912px" style="font-family:'Quicksand-Regular', 'Quicksand';font-size:116.667px;">s</text>
            </g>
            <g transform="matrix(0.970518,-0.241028,0.241028,0.970518,-80.8086,212.439)">
                <text x="827.99px" y="436.544px" style="font-family:'Quicksand-Regular', 'Quicksand';font-size:116.667px;">e</text>
            </g>
            <g transform="matrix(0.997694,-0.0678738,0.0678738,0.997694,-26.554,61.4567)">
                <text x="891.134px" y="421.503px" style="font-family:'Quicksand-Regular', 'Quicksand';font-size:116.667px;">r</text>
            </g>
            <g transform="matrix(0.999828,0.0185247,-0.0185247,0.999828,7.91764,-17.2681)">
                <text x="936.046px" y="418.739px" style="font-family:'Quicksand-Regular', 'Quicksand';font-size:116.667px;">i</text>
            </g>
            <g transform="matrix(0.99239,0.123135,-0.123135,0.99239,58.8075,-115.176)">
                <text x="961.206px" y="418.179px" style="font-family:'Quicksand-Regular', 'Quicksand';font-size:116.667px;">e</text>
            </g>
            <g transform="matrix(0.96266,0.270715,-0.270715,0.96266,153.748,-261.705)">
                <text x="1025.54px" y="426.479px" style="font-family:'Quicksand-Regular', 'Quicksand';font-size:116.667px;">s</text>
            </g>
            <g transform="matrix(0.833185,0.552994,-0.552994,0.833185,434.445,-538.224)">
                <text x="1109.33px" y="450.984px" style="font-family:'Quicksand-Regular', 'Quicksand';font-size:116.667px;">m</text>
            </g>
            <g transform="matrix(0.680749,0.732517,-0.732517,0.680749,757.093,-713.179)">
                <text x="1196.74px" y="511.98px" style="font-family:'Quicksand-Regular', 'Quicksand';font-size:116.667px;">a</text>
            </g>
            <g transform="matrix(0.552812,0.833306,-0.833306,0.552812,1026.34,-784.295)">
                <text x="1243.91px" y="564.106px" style="font-family:'Quicksand-Regular', 'Quicksand';font-size:116.667px;">r</text>
            </g>
            <g transform="matrix(0.485856,0.874039,-0.874039,0.485856,1177.97,-799.4)">
                <text x="1268.47px" y="601.569px" style="font-family:'Quicksand-Regular', 'Quicksand';font-size:116.667px;">i</text>
            </g>
            <g transform="matrix(0.377159,0.926148,-0.926148,0.377159,1375.43,-799.163)">
                <text x="1281.88px" y="623.03px" style="font-family:'Quicksand-Regular', 'Quicksand';font-size:116.667px;">n</text>
            </g>
            <g transform="matrix(0.175803,0.984425,-0.984425,0.175803,1752.74,-722.251)">
                <text x="1307.7px" y="685.614px" style="font-family:'Quicksand-Regular', 'Quicksand';font-size:116.667px;">e</text>
            </g>
            <g transform="matrix(-0.00583792,0.999983,-0.999983,-0.00583792,2073.89,-562.49)">
                <text x="1316.55px" y="749.662px" style="font-family:'Quicksand-Regular', 'Quicksand';font-size:116.667px;">s</text>
            </g>
        </g>
        <g transform="matrix(0.751856,0,0,0.615005,-181.436,-74.7821)">
            <path d="M590.551,1771.65C590.551,1771.65 588.163,1143.15 590.551,935.433C592.44,771.183 684.976,426.018 1003.94,419.198C1307.68,412.703 1418.85,783.272 1417.32,929.197C1416.08,1047.78 1417.32,1771.65 1417.32,1771.65" style="fill:none;stroke:black;stroke-width:12.13px;"/>
        </g>
        <g transform="matrix(0.991403,0,0,0.852471,-398.919,-935.481)">
            <path d="M560.409,2317.53C560.409,2548.72 747.826,2736.14 979.016,2736.14C1210.21,2736.14 1397.62,2548.72 1397.62,2317.53L979.016,2317.53L560.409,2317.53Z" style="fill:rgb(93,140,170);stroke:white;stroke-width:9.01px;"/>
        </g>
        <g transform="matrix(2.05656,0,0,2.05656,-1259.91,-1584.48)">
            <path d="M851.771,1024.37L852.776,1103.38L852.295,1065.54L830.344,1045.46L852.295,1065.54L830.679,1081.28L852.295,1065.54L872.864,1047.8L852.295,1065.54L872.529,1083.29L852.295,1065.54" style="fill:none;stroke:rgb(93,140,170);stroke-width:2.03px;"/>
        </g>
        <g transform="matrix(2.74208,0,0,2.63819,-1896.09,-2191.54)">
            <ellipse cx="913.584" cy="1054.58" rx="4.394" ry="4.604" style="fill:rgb(93,140,170);"/>
        </g>
        <g transform="matrix(2.05656,0,0,2.05656,-1259.91,-1580.84)">
            <path d="M885.921,1101.71L886.256,1120.46L873.868,1112.42L886.256,1120.46L876.212,1134.85L886.256,1120.46L894.626,1132.84L886.256,1120.46L898.644,1112.42L886.256,1120.46" style="fill:none;stroke:rgb(93,140,170);stroke-width:2.03px;"/>
        </g>
        <g transform="matrix(2.05656,0,0,2.05656,-1259.91,-1580.84)">
            <path d="M867.172,1124.14C861.35,1123.97 849.707,1123.64 842.397,1122.8C835.96,1122.06 829.172,1119.79 823.313,1119.12C819.204,1118.65 812.934,1117.61 810.925,1119.79C808.916,1121.96 808.274,1125.74 811.26,1132.17C814.863,1139.94 828.734,1153.93 839.718,1162.31C851.715,1171.46 869.906,1181.56 883.243,1187.08C894.773,1191.86 911.415,1194.25 919.736,1195.45" style="fill:none;stroke:rgb(93,140,170);stroke-width:4.05px;stroke-linecap:butt;"/>
        </g>
        <g transform="matrix(2.05656,0,0,2.05656,-1259.91,-1580.84)">
            <path d="M962.257,1280.49C960.899,1264.76 958.183,1233.29 957.569,1219.89C957.267,1213.31 956.011,1206.21 958.574,1200.14C961.587,1193 968.982,1183.91 975.649,1177.04C983.42,1169.03 997.94,1157.72 1005.2,1152.06" style="fill:none;stroke:rgb(93,140,170);stroke-width:4.05px;stroke-linecap:butt;"/>
        </g>
        <g transform="matrix(2.05656,0,0,2.05656,-1259.91,-1580.84)">
            <path d="M1021.67,1139.52C1028.82,1133.77 1043.13,1122.28 1047.63,1116.1C1051.83,1110.35 1050.96,1110.84 1052.65,1103.72C1055.26,1092.77 1054.83,1068.35 1050.98,1070.9C1045.51,1074.53 1038.34,1080.61 1031.9,1085.3C1024.92,1090.38 1017.97,1098.52 1009.13,1101.37C998.248,1104.89 987.702,1105.78 978.662,1108.4C969.725,1111 960.359,1115.15 952.882,1119.12C946.071,1122.73 938.613,1126.15 933.798,1132.17C928.665,1138.59 922.917,1144.84 922.08,1157.62C921.701,1163.41 923.323,1173.02 930.785,1172.68C939.316,1172.3 938.454,1162.76 937.816,1157.28C936.85,1148.99 932.361,1145.1 927.733,1140.17C923.777,1135.95 915.233,1128.64 906.679,1125.81" style="fill:none;stroke:rgb(93,140,170);stroke-width:4.05px;stroke-linecap:butt;"/>
        </g>
        <g transform="matrix(2.05656,0,0,1.97108,-1259.91,-1477.61)">
            <path d="M883.964,1284.18C889.063,1276.96 899.262,1262.53 902.43,1249.96C905.644,1237.21 904.048,1217.52 903.25,1207.67" style="fill:none;stroke:rgb(93,140,170);stroke-width:4.14px;stroke-linecap:butt;"/>
        </g>
        <g transform="matrix(0.697491,0,0,0.697491,-241.929,-80.5428)">
            <path d="M577.029,905.516L578.626,1569.65" style="fill:none;stroke:black;stroke-width:11.95px;"/>
        </g>
        <g transform="matrix(0.697491,0,0,0.697491,581.748,-80.5428)">
            <path d="M577.029,905.516L578.626,1569.65" style="fill:none;stroke:black;stroke-width:11.95px;"/>
        </g>
        <g transform="matrix(1,0,0,1,32.7256,-49.0431)">
            <path d="M127.155,809.486C152.807,757.168 204.109,652.534 228.891,624.274C239.769,611.87 264.669,652.061 275.846,639.926C282.844,632.328 282.35,610.053 291.046,585.39C301.26,556.421 343.67,504.278 343.67,504.278C343.67,504.278 366.598,541.244 380.191,546.016C414.268,557.979 436.874,517.72 462.77,470.974C479.699,440.414 513.23,392.107 513.23,392.107C513.23,392.107 547.691,415.055 560.185,439.062C572.54,462.802 609.695,534.552 622.792,509.495C650.508,456.47 696.745,431.236 696.745,431.236C696.745,431.236 735.702,473.33 776.7,551.233C792.607,581.457 847.133,590.362 847.133,590.362C847.133,590.362 885.738,578.354 891.48,595.579C906.262,639.926 936.406,671.4 951.478,687.137" style="fill:none;stroke:black;stroke-width:8.33px;"/>
        </g>
    </g>
</svg>
